PathFileType	4	(X/Y/Z)	37_2_56_p0_0-513_filt_butterworth.trc
DataRate	CameraRate	NumFrames	NumMarkers	Units	OrigDataRate	OrigDataStartFrame	OrigNumFrames
59.0	59.0	6	27	m	59.0	128	513
Frame#	Time	RHip			RKnee			RAnkle			RBigToe			RSmallToe			RHeel			LHip			LKnee			LAnkle			LBigToe			LSmallToe			LHeel			Neck			Head			Nose			RShoulder			RElbow			RWrist			RThumb			RIndex			RPinky			LShoulder			LElbow			LWrist			LThumb			LIndex			LPinky			
		X1	Y1	Z1	X2	Y2	Z2	X3	Y3	Z3	X4	Y4	Z4	X5	Y5	Z5	X6	Y6	Z6	X7	Y7	Z7	X8	Y8	Z8	X9	Y9	Z9	X10	Y10	Z10	X11	Y11	Z11	X12	Y12	Z12	X13	Y13	Z13	X14	Y14	Z14	X15	Y15	Z15	X16	Y16	Z16	X17	Y17	Z17	X18	Y18	Z18	X19	Y19	Z19	X20	Y20	Z20	X21	Y21	Z21	X22	Y22	Z22	X23	Y23	Z23	X24	Y24	Z24	X25	Y25	Z25	X26	Y26	Z26	X27	Y27	Z27	
128	2.169491525423729	0.3889239415866723	0.6853500517922748	0.4694452097650737	0.35850813218248667	0.8730031131321276	0.9423422393595158	0.37942366489662	1.0584967231704063	1.3809070570190065	0.32051934856052294	0.8862421804819478	1.4340249481406713	0.38451501609538624	0.8795123179709303	1.433322867007035	0.36947661916007535	1.1748783905012634	1.4300291577389364	0.1872226192317923	0.7310501360059589	0.4659001599085947	0.1889157568620771	0.9216465545157911	0.9392133827297375	0.17997148588463902	1.0759667671016337	1.362239121233363	0.17140013522524072	0.884275941637663	1.4076825053354087	0.1187391369395196	0.9391019645109687	1.4164484620556088	0.20748250985637515	1.1451868745268865	1.4249655664035983	0.28321527501886445	0.5474696231195975	-0.03804514278971391	0.2673858151052687	0.42960569562981915	-0.251546341578803	0.25410815594587144	0.4095463084331245	-0.11947415088794536	0.4507488384269006	0.5828687295299614	0.060732323916423143	0.4874668146470912	0.689879548296629	0.33166040614616393	0.4585982667363302	0.6749832332472859	0.5896341245570733	0.40883799569220863	0.69129377214374	0.695407622369962	0.41762268903030514	0.715578526916716	0.7254110270729968	0.43642348675774634	0.7271725781646283	0.7139500016489044	0.1308311946222287	0.6599721958146626	0.01815481986182843	0.09988882306922564	0.7126440092477166	0.28505576618288436	0.09880359584083723	0.7158835636205682	0.5354451305523004	0.13362325094717323	0.7155974541974927	0.6372612638564621	0.10999128912155454	0.7517658944499892	0.6819019695155069	0.09705729386572517	0.7689102777095094	0.6613907270843395
129	2.1864406779661016	0.3889746768328632	0.684935157842592	0.46990600150800643	0.3585852228335541	0.8741187973880975	0.9447599758226062	0.379412873499458	1.0584862943702915	1.3809489838021798	0.321168551961086	0.8813810736318037	1.4325637269771556	0.3844120205282777	0.8794724631906008	1.4333199029855948	0.37002196795564196	1.1698377871902605	1.4296799958711741	0.18723290984982716	0.7311291891907532	0.46602625290312116	0.18889676352894627	0.9215229710335758	0.9391637091010621	0.1800480714517032	1.075959790180959	1.362285178900366	0.1713153226892579	0.8843893885337138	1.4063381620702142	0.11755737431005153	0.9374891954027851	1.4151629509262755	0.20750243691780237	1.1452286032261378	1.4250026396458506	0.2832202901906674	0.547464037520731	-0.03807363426359041	0.2669264860474718	0.42950309040149814	-0.2514786890980749	0.2540746445057778	0.4095560453457938	-0.11949927045124692	0.4507533885137746	0.5829405599630899	0.060736655918042316	0.4874920127028416	0.6898550420406576	0.3316615323486243	0.458575171148182	0.674928762683939	0.5887030007936629	0.4088408551525056	0.6912855715169994	0.6954542024164463	0.41763014250767333	0.7155931950393641	0.7254438674744598	0.4364075557255977	0.7271022571210881	0.7139949004072221	0.13083642077379787	0.6600001026460305	0.018149979429497413	0.09984379732412588	0.7123125219092055	0.2846835567876707	0.09875983517752669	0.7158683686256673	0.5354315994914846	0.1335803750414281	0.7155406169823415	0.6372516985795835	0.10994611572186402	0.7516029629338445	0.6818684286591056	0.09704110329801065	0.768862874146261	0.6613897467813274
130	2.2033898305084745	0.388997841644533	0.6848707773347211	0.4709886999136951	0.3588656175745732	0.8753029611804726	0.9469749325616237	0.3793967123650942	1.0584823722152354	1.3809770414871694	0.32203266261292895	0.8748965587685649	1.4306041754646595	0.38427490440765133	0.879466469398237	1.4333270587546916	0.36945403158235596	1.168879566402975	1.4294184960320468	0.187226040011992	0.7312214503970621	0.4661145866133707	0.1888737226746102	0.9213792295778181	0.9390975732654484	0.18013670834984022	1.0758230332200518	1.3618232754936386	0.17124427678728937	0.8845162176054702	1.406285685932351	0.11707805106506294	0.9373407463719476	1.4145896632346406	0.20741686732811482	1.1450625329974806	1.4244024932103814	0.28322609740725585	0.5474839379873628	-0.03807773493780486	0.2669313401732313	0.42947284475812786	-0.25145431774781646	0.254093817669511	0.40975727720643523	-0.11918558232926885	0.45075874305747404	0.5830278852437759	0.06073242915193021	0.48746456386228126	0.6899878824921851	0.3315741556341983	0.45856894414205496	0.6748892826966711	0.5874107254591197	0.40884322390395633	0.6912912962020089	0.695507533376278	0.4176316289994619	0.7156176300075019	0.7254605411987676	0.43639693783202127	0.7270730937710782	0.7140250432170583	0.13083813104658215	0.6600225018803678	0.01813118426936605	0.09971447454333618	0.7116065910834539	0.28374298846771295	0.09873662151057296	0.715809776777804	0.5354026651019776	0.13283064629605537	0.719450566928108	0.6373204204168367	0.10985360641143443	0.7512052831430835	0.6814475465479944	0.09700840512546746	0.7687993992478998	0.6614733087897413
131	2.2203389830508478	0.388836191179447	0.6864403293964911	0.47245474908501595	0.35915513700809387	0.876071108670003	0.9483538627622451	0.3793703896480609	1.0584826506403604	1.3809913932926792	0.32266017007183395	0.8703432207285797	1.4292158616124042	0.38430352305213317	0.8796057400292413	1.4333632887748722	0.3677430969533354	1.1712483741700028	1.429370231557809	0.18721117971251747	0.731340951265917	0.46614197013065545	0.1888522349265466	0.921329296331951	0.9390459653936332	0.18016830367741127	1.0753107218394244	1.3605172904274845	0.17118704251157613	0.8846658627881778	1.4078415031916922	0.11707763272076063	0.9372868881469361	1.4144230724386748	0.20717415803471317	1.1444241233793047	1.422547887875658	0.28323225405497415	0.5475501431975749	-0.03804301868648458	0.2670399785536542	0.42946115629623915	-0.25143782759811123	0.2541911747439588	0.4102347052344223	-0.11830776314178126	0.4507643240600137	0.583085055577113	0.060725322584080074	0.487449511630946	0.6902488033482498	0.3315685814915569	0.45860594478450734	0.6748735660057908	0.5863673045966215	0.40887018439725226	0.6913218568145361	0.6955749901871336	0.41763805431234047	0.7156384406684206	0.7254586357424346	0.4364136870580859	0.7271433492091031	0.7140487663552569	0.1308414839630497	0.6600509350014439	0.018113902066988263	0.09958259729752335	0.7108137922217299	0.2824680645405804	0.09872814864930544	0.7156462216567099	0.5353260736554041	0.13174434273967614	0.7248066299585513	0.6374311276602314	0.10968156560652728	0.7503904960412161	0.6803655793454315	0.09694650072296442	0.7685691115550988	0.6614566478443402
132	2.23728813559322	0.3883538593878448	0.690671363656343	0.4736367133425114	0.3592970812592694	0.8763751178084774	0.9490583224161161	0.3793395027854435	1.0584794020221464	1.3810029841736549	0.32270184930007845	0.8703682435954577	1.4292124080560658	0.38485540687752595	0.8798817523987144	1.433441247848282	0.36601092632909177	1.1721315534355252	1.4291313181336212	0.1872014798858069	0.7314889425612148	0.4661258089811875	0.18882212444903274	0.9213721786588378	0.9390260018596595	0.18004476972419217	1.0743786223036649	1.358702501415919	0.17108105315768543	0.884942490013306	1.4105636087810816	0.11722356158487782	0.9369140435445968	1.414327765207595	0.20693676861153684	1.1436387351163608	1.4202444845826565	0.28323901616790137	0.547648077163967	-0.03799194694794975	0.26709493157118425	0.429443687993341	-0.25141589101833633	0.2543331555796051	0.4108524700927219	-0.11711806332618935	0.4507640476203707	0.5831038947396301	0.0607216502242399	0.4874524101126813	0.6901659963206126	0.33165236982943513	0.4586801767164136	0.674556878489987	0.5859507130211745	0.40892069590542185	0.6913802574572252	0.6956708994627918	0.41764699949622236	0.7156531127414485	0.7254449151934446	0.43646335408361825	0.7273320852614097	0.7141202739873538	0.13085092971063447	0.6600976705838615	0.018090944063494586	0.09952983297958978	0.7103996085216083	0.28145167145269034	0.09872063097608645	0.7154359081559293	0.5352182306464668	0.13086625503911656	0.7285356791090188	0.637519701308805	0.10947556103007755	0.749369622489768	0.6788879611076268	0.09683783757113755	0.7679645139911391	0.6609608187481641
133	2.254237288135593	0.3876807890363281	0.6963644043404313	0.4740786023142331	0.35935358433350156	0.8764420387891197	0.9491966634413023	0.37931648220490255	1.0584725807470048	1.3810166088419262	0.3221575189253672	0.8749585816941922	1.4306049511627856	0.38615925565331294	0.880204648382236	1.4335687722329418	0.36505641033069863	1.1685869026526892	1.4284396907605466	0.18719167988476862	0.7316022729774991	0.4660891082337085	0.18878777474172428	0.9214072474230406	0.9390278581646517	0.17972108477490092	1.073354693933995	1.3572619588380959	0.1708777081996816	0.8853291153316366	1.4132709707817392	0.11736452444826292	0.9365363875171832	1.4142611170120984	0.20683676449440003	1.14339081413232	1.41917353334499	0.2832462526639203	0.5477298344708659	-0.03796173055371429	0.2670952809007142	0.42940865433769726	-0.2513960736309318	0.2544340175104143	0.411336800401784	-0.11628042058007332	0.45075299115900747	0.58309808420141	0.06072468363301325	0.487477837077374	0.6885575773023953	0.3316756931324611	0.4588667149487643	0.6728880282345985	0.5860282613212722	0.40895761747319914	0.6914502284998089	0.6956967700453431	0.41764975100402396	0.7156641778334414	0.7254201488331723	0.4365119338280764	0.7275593894767716	0.7142400311425479	0.13086482012017014	0.6601532506702824	0.01805079600124471	0.09953227876203222	0.71057084639348	0.2810616677152611	0.09869813892456508	0.7152893188632138	0.53512692012307	0.1304645365450688	0.7296599028146775	0.6375310606618328	0.10933295984150872	0.7486584832964105	0.6776399759410024	0.09666072698459814	0.7668832060493133	0.6597191096563416
